<?xml version="1.0" encoding="UTF-8" standalone="no"?>
<!-- Generator: Adobe Illustrator 16.0.0, SVG Export Plug-In . SVG Version: 6.00 Build 0)  -->

<svg
   version="1.1"
   x="0px"
   y="0px"
   width="143.80026"
   height="143.80005"
   viewBox="0 0 143.80027 143.80004"
   xml:space="preserve"
   id="svg213"
   sodipodi:docname="20230710_elevate-logo.svg"
   inkscape:version="1.2.2 (b0a8486, 2022-12-01)"
   inkscape:export-filename="20240122_elevate-logo.svg"
   inkscape:export-xdpi="96"
   inkscape:export-ydpi="96"
   xmlns:inkscape="http://www.inkscape.org/namespaces/inkscape"
   xmlns:sodipodi="http://sodipodi.sourceforge.net/DTD/sodipodi-0.dtd"
   xmlns="http://www.w3.org/2000/svg"
   xmlns:svg="http://www.w3.org/2000/svg"><sodipodi:namedview
   id="namedview977"
   pagecolor="#ffffff"
   bordercolor="#000000"
   borderopacity="0.25"
   inkscape:showpageshadow="2"
   inkscape:pageopacity="0.0"
   inkscape:pagecheckerboard="0"
   inkscape:deskcolor="#d1d1d1" /><defs
   id="defs215"><linearGradient
     id="SVGID_10_-7"
     gradientUnits="userSpaceOnUse"
     x1="144.0327"
     y1="692.09473"
     x2="144.0327"
     y2="556.59387"
     gradientTransform="translate(-72.100011,-552.7)">
			<stop
   offset="0"
   style="stop-color:#2A3343"
   id="stop177-9" />
			<stop
   offset="0.4974"
   style="stop-color:#305266"
   id="stop179-3" />
			<stop
   offset="1"
   style="stop-color:#366E86"
   id="stop181-8" />
		</linearGradient></defs>
<style
   type="text/css"
   id="style2">
<![CDATA[
	.st0{fill:none;stroke:url(#SVGID_7_);stroke-width:12;stroke-miterlimit:11.3386;}
	.st1{enable-background:new    ;}
	.st2{fill:none;stroke:url(#SVGID_5_);stroke-width:12;stroke-miterlimit:11.3386;}
	.st3{display:inline;fill:#2A3343;}
	.st4{fill:url(#SVGID_1_);}
	.st5{fill:url(#SVGID_2_);}
	.st6{fill:url(#SVGID_3_);}
	.st7{fill:url(#SVGID_6_);}
	.st8{fill:url(#SVGID_9_);}
	.st9{fill:#2A3343;}
	.st10{display:inline;fill:#366E86;}
	.st11{display:inline;}
	.st12{fill:none;stroke:url(#SVGID_8_);stroke-width:12;stroke-miterlimit:11.3386;}
	.st13{letter-spacing:1;}
	.st14{font-family:'FuturaLT-Heavy';}
	.st15{fill:none;stroke:url(#SVGID_4_);stroke-width:12;stroke-miterlimit:11.3386;}
	.st16{display:inline;enable-background:new    ;}
	.st17{fill:url(#SVGID_10_);}
	.st18{display:none;}
	.st19{font-size:78.5624;}
]]>
</style>


<path
   class="st17"
   d="M 71.899989,4.0517876e-6 C 32.199989,4.0517876e-6 -1.1307245e-5,32.200004 -1.1307245e-5,71.900004 -1.1307245e-5,111.6 32.199989,143.8 71.899989,143.8 c 39.700001,0 71.900001,-32.2 71.900001,-71.899996 0.1,-39.7 -32.1,-71.8999999482124 -71.900001,-71.8999999482124 z m 0,11.9999999482124 c 33.000001,0 59.900001,26.9 59.900001,59.9 0,8.3 -1.7,16.1 -4.7,23.3 l -36.500001,-61 -25,42.5 -20,-33.3 -29.6,49.9 c -2.5,-6.6 -3.9,-13.8 -3.9,-21.4 -0.1,-33 26.8,-59.9 59.8,-59.9 z m -49.4,93.699996 23.3,-38.899996 13,21.8 -19.7,33.399996 c -6.5,-4.3 -12.2,-9.8 -16.6,-16.3 z m 27.3,21.9 16,-27.3 18.1,30.3 c -3.9,0.8 -7.9,1.2 -12,1.2 -7.8,0 -15.3,-1.5 -22.1,-4.2 z m 45.9,-0.7 -23,-38.399996 18.1,-30.7 L 120.29999,107.2 c -6.2,8.6 -14.7,15.4 -24.600001,19.7 z"
   id="path184-2"
   style="fill:url(#SVGID_10_-7)"
   inkscape:export-filename="path184-2.png"
   inkscape:export-xdpi="96"
   inkscape:export-ydpi="96" />
</svg>
